HIERARCHY
ROOT hip
{
  OFFSET 0 0 0
  CHANNELS 6 Xposition Yposition Zposition Zrotation Yrotation Xrotation
  JOINT abdomen
  {
    OFFSET 0 20.6881 -0.73152
    CHANNELS 3 Zrotation Xrotation Yrotation
    JOINT chest
    {
      OFFSET 0 11.7043 -0.48768
      CHANNELS 3 Zrotation Xrotation Yrotation
      JOINT neck
      {
        OFFSET 0 22.1894 -2.19456
        CHANNELS 3 Zrotation Xrotation Yrotation
        JOINT head
        {
          OFFSET -0.24384 7.07133 1.2192
          CHANNELS 3 Zrotation Xrotation Yrotation
          JOINT leftEye
          {
            OFFSET 4.14528 8.04674 8.04672
            CHANNELS 3 Zrotation Xrotation Yrotation
            End Site
            {
              OFFSET 1 0 0
            }
          }
          JOINT rightEye
          {
            OFFSET -3.6576 8.04674 8.04672
            CHANNELS 3 Zrotation Xrotation Yrotation
            End Site
            {
              OFFSET 1 0 0
            }
          }
        }
      }
      JOINT rCollar
      {
        OFFSET -2.68224 19.2634 -4.8768
        CHANNELS 3 Zrotation Xrotation Yrotation
        JOINT rShldr
        {
          OFFSET -8.77824 -1.95073 1.46304
          CHANNELS 3 Zrotation Xrotation Yrotation
          JOINT rForeArm
          {
            OFFSET -28.1742 -1.7115 0.48768
            CHANNELS 3 Zrotation Xrotation Yrotation
            JOINT rHand
            {
              OFFSET -22.5879 0.773209 7.07136
              CHANNELS 3 Zrotation Xrotation Yrotation
              JOINT rThumb1
              {
                OFFSET -1.2192 -0.487915 3.41376
                CHANNELS 3 Zrotation Xrotation Yrotation
                JOINT rThumb2
                {
                  OFFSET -3.37035 -0.52449 3.41376
                  CHANNELS 3 Zrotation Xrotation Yrotation
                  End Site
                  {
                    OFFSET -1.78271 -1.18214 1.43049
                  }
                }
              }
              JOINT rIndex1
              {
                OFFSET -7.75947 0.938293 5.60832
                CHANNELS 3 Zrotation Xrotation Yrotation
                JOINT rIndex2
                {
                  OFFSET -2.54057 -0.884171 1.56538
                  CHANNELS 3 Zrotation Xrotation Yrotation
                  End Site
                  {
                    OFFSET -1.62519 -0.234802 1.16502
                  }
                }
              }
              JOINT rMid1
              {
                OFFSET -8.24714 1.18213 3.41376
                CHANNELS 3 Zrotation Xrotation Yrotation
                JOINT rMid2
                {
                  OFFSET -3.10165 -0.590103 1.0647
                  CHANNELS 3 Zrotation Xrotation Yrotation
                  End Site
                  {
                    OFFSET -2.48547 -0.328903 0.83742
                  }
                }
              }
              JOINT rRing1
              {
                OFFSET -8.82822 0.546677 1.51678
                CHANNELS 3 Zrotation Xrotation Yrotation
                JOINT rRing2
                {
                  OFFSET -2.60934 -0.819778 -0.0198488
                  CHANNELS 3 Zrotation Xrotation Yrotation
                  End Site
                  {
                    OFFSET -2.33842 -0.294052 0.168128
                  }
                }
              }
              JOINT rPinky1
              {
                OFFSET -8.27202 -0.0477905 -0.4584
                CHANNELS 3 Zrotation Xrotation Yrotation
                JOINT rPinky2
                {
                  OFFSET -1.82734 -0.647385 -0.700984
                  CHANNELS 3 Zrotation Xrotation Yrotation
                  End Site
                  {
                    OFFSET -1.69225 -0.51767 -0.607171
                  }
                }
              }
            }
          }
        }
      }
      JOINT lCollar
      {
        OFFSET 2.68224 19.2634 -4.8768
        CHANNELS 3 Zrotation Xrotation Yrotation
        JOINT lShldr
        {
          OFFSET 8.77824 -1.95073 1.46304
          CHANNELS 3 Zrotation Xrotation Yrotation
          JOINT lForeArm
          {
            OFFSET 28.1742 -1.7115 0.48768
            CHANNELS 3 Zrotation Xrotation Yrotation
            JOINT lHand
            {
              OFFSET 22.5879 0.773209 7.07136
              CHANNELS 3 Zrotation Xrotation Yrotation
              JOINT lThumb1
              {
                OFFSET 1.2192 -0.487915 3.41376
                CHANNELS 3 Zrotation Xrotation Yrotation
                JOINT lThumb2
                {
                  OFFSET 3.37035 -0.52449 3.41376
                  CHANNELS 3 Zrotation Xrotation Yrotation
                  End Site
                  {
                    OFFSET 1.78271 -1.18214 1.43049
                  }
                }
              }
              JOINT lIndex1
              {
                OFFSET 7.75947 0.938293 5.60832
                CHANNELS 3 Zrotation Xrotation Yrotation
                JOINT lIndex2
                {
                  OFFSET 2.54057 -0.884171 1.56538
                  CHANNELS 3 Zrotation Xrotation Yrotation
                  End Site
                  {
                    OFFSET 1.62519 -0.234802 1.16502
                  }
                }
              }
              JOINT lMid1
              {
                OFFSET 8.24714 1.18213 3.41376
                CHANNELS 3 Zrotation Xrotation Yrotation
                JOINT lMid2
                {
                  OFFSET 3.10165 -0.590103 1.0647
                  CHANNELS 3 Zrotation Xrotation Yrotation
                  End Site
                  {
                    OFFSET 2.48547 -0.328903 0.83742
                  }
                }
              }
              JOINT lRing1
              {
                OFFSET 8.82822 0.546677 1.51678
                CHANNELS 3 Zrotation Xrotation Yrotation
                JOINT lRing2
                {
                  OFFSET 2.60934 -0.819778 -0.0198488
                  CHANNELS 3 Zrotation Xrotation Yrotation
                  End Site
                  {
                    OFFSET 2.33842 -0.294052 0.168128
                  }
                }
              }
              JOINT lPinky1
              {
                OFFSET 8.27202 -0.0477905 -0.4584
                CHANNELS 3 Zrotation Xrotation Yrotation
                JOINT lPinky2
                {
                  OFFSET 1.82734 -0.647385 -0.700984
                  CHANNELS 3 Zrotation Xrotation Yrotation
                  End Site
                  {
                    OFFSET 1.69225 -0.51767 -0.607171
                  }
                }
              }
            }
          }
        }
      }
    }
  }
  JOINT rButtock
  {
    OFFSET -8.77824 4.35084 1.2192
    CHANNELS 3 Zrotation Xrotation Yrotation
    JOINT rThigh
    {
      OFFSET 0 -1.70687 -2.19456
      CHANNELS 3 Zrotation Xrotation Yrotation
      JOINT rShin
      {
        OFFSET 0 -36.8199 0.73152
        CHANNELS 3 Zrotation Xrotation Yrotation
        JOINT rFoot
        {
          OFFSET 0.73152 -45.1104 -5.12064
          CHANNELS 3 Zrotation Xrotation Yrotation
          End Site
          {
            OFFSET -1.1221 -3.69964 12.103
          }
        }
      }
    }
  }
  JOINT lButtock
  {
    OFFSET 8.77824 4.35084 1.2192
    CHANNELS 3 Zrotation Xrotation Yrotation
    JOINT lThigh
    {
      OFFSET 0 -1.70687 -2.19456
      CHANNELS 3 Zrotation Xrotation Yrotation
      JOINT lShin
      {
        OFFSET 0 -36.8199 0.73152
        CHANNELS 3 Zrotation Xrotation Yrotation
        JOINT lFoot
        {
          OFFSET -0.73152 -45.1104 -5.12064
          CHANNELS 3 Zrotation Xrotation Yrotation
          End Site
          {
            OFFSET 1.1221 -3.69964 12.103
          }
        }
      }
    }
  }
}
MOTION
Frames:	4
Frame Time:	0.03333
0.3834567964076996 55.99884390830994 0.12602945789694786 -5.967656659924262 4.890753966979869 2.63798234166877 -2.5353201161318357 14.23326984817043 4.079557158693195 2.6695819984204223 -9.974004862885499 1.3570970096572976 -4.654776053797805 14.461033605101907 -2.6448932124483537 8.102792577490465 -22.87205127549389 -4.299849115559501 0.04956129336064057 0.029393025402062293 -0.0755489958838821 -0.21223276053251372 -0.01331854871640752 0.09811313278672086 0.09485145065377532 -0.2317220116380575 0.03405021390001929 38.79321710815174 24.73912617379919 12.973114460455063 -22.9995316337103 -27.368303334410754 55.92642220714315 -4.514062204064495 -8.336198924450018 -5.467468246625888 0.10606899582888989 0.031574203624823556 0.15149143467634074 0.13468316622215917 -0.09318069566934029 0.01182737968237622 -0.06872749786278393 0.0931385939564095 0.18259061998873108 7.422822486179955 5.584565863530233 0.4417410971883995 0.07401886675713397 0.014048738627364195 -0.0023337369011758413 2.8614684791891145 1.0958267992569717 0.059169541913637005 0.10559515145522026 0.08801846003898581 0.15286827808305367 9.653540924764963 0.7163303899136619 -0.08522259147134983 -0.055576021976777266 0.10215284283523961 0.07059410718764776 2.379812930429924 -0.6690772202448096 -0.01654906811126488 0.04869193834534489 0.12991115850899457 0.00098162624977777 -45.726415776132036 26.75607762060937 -18.23522197062712 22.181780405141357 -26.084130440252686 -53.3509491164281 4.987956523492436 -12.215793330567806 4.737206618682928 -0.05083763160093381 0.04689746622348271 0.0040914967562492004 -0.011260740785529615 0.10827576058061225 -0.07754495191615304 -0.08186600706153814 0.08666381474707542 0.0524358425058639 -7.629789170862389 5.307331473327177 -0.3489171721814866 -0.054355152343063935 0.0035535126374049153 0.0071261284601447095 -2.8915859848908743 0.8348757934786379 -0.032983423729027926 0.021433240337205794 -0.00261863049475942 0.035461114871089716 -9.918034023958183 0.7502245633396155 0.2562272896370352 -0.12269164855629108 0.037480663070444974 -0.011671619352788196 -2.1342486333043365 -0.7031172822425665 0.4163988008509779 -0.02536758938169181 0.01528921837451487 0.063581350529576 -25.614776915962334 -31.66916246419377 -25.511794738751465 -5.938634759254055 53.666107705110825 6.699487523829033 -4.873952555395284 -9.284457138811337 -8.891401950191906 -0.00256489611589846 0.0737590394241958 -0.18766211548874487 28.79209554048764 -29.207989174144302 26.99427534527169 5.610759638997232 54.306738468123 -7.352134297138554 5.121120879758766 -8.938224604499636 11.473213456456726
0.08456474170088768 68.08733940124512 0.24583861231803894 -3.9844655575209855 3.7342650560528403 5.295432856906192 -2.762543434345235 14.831728461926009 3.3728577623960745 2.9360059067146405 -9.534727222831652 0.834208249208975 -5.429331458508299 16.436862190466734 -4.8137218128599955 9.591927495809571 -26.92456984969712 -6.831571002659209 0.05041557393499463 -0.12471450512852555 -0.03699567294862779 0.06102998138988534 0.054035334071263375 0.0539917649348781 -0.12369256475438885 0.05082487835709293 -0.02152458077714149 54.863064206209714 31.93269506803496 15.013005097592732 -24.95309550992818 -29.936282000059006 67.38608627583386 -4.1840091072360845 -9.932303142907985 -4.296386209650304 -0.15254325712809627 0.04708550986906962 -0.24348501145142107 -0.022661073562221367 0.06302231555426632 0.02165159294723464 0.022943032308895956 0.004539301033708162 -0.09572742241482946 8.20194216480331 5.491965573857785 0.3809780801455265 0.03303773173705746 0.07228154410871775 0.0400391292035701 2.9581212054734953 0.7920174236538657 0.04888290349762757 0.02591026925559048 0.006747853374002363 -0.29687641343042565 10.878356059941037 0.7868137800016681 0.15707735547864757 0.09307376052014728 -0.16690260928013737 0.018024202209002516 2.158878082007991 -0.881604105798457 -0.37223874638078935 0.05211711813154761 -0.07555149717386135 0.004011348755207332 -64.87059590640986 34.6563559429826 -25.07940961334381 24.016727801138206 -27.72243839759216 -63.98209757841793 5.405977761075556 -11.002878092473185 3.453547269373078 0.07594161836934545 -0.07610250134081098 0.05396479102374184 -0.0479134568625221 -0.15080057171396452 -0.011035878151448103 -0.10714944637822128 -0.10055588591035244 0.06111071636030901 -7.865323121748401 5.731922926005027 -0.4978862126612564 -0.045434738524042166 -0.08314816163479648 -0.06368244266537748 -3.1099112741630393 1.0454826488235713 -0.1104752815965547 -0.09426365417875754 0.005061810505214137 -0.03036040430411824 -10.647472614106157 0.7526015225316329 -0.20707543410062518 0.07019827638090437 -0.11802999108690448 -0.0922152377579884 -2.3088974241552087 -0.6476139911082793 -0.04349427110867096 0.030526623360872848 -0.033509708480875915 -0.007719714587701131 -32.54865860285963 -37.280535112669014 -28.35077140500373 -4.366471207610629 65.99668919486987 5.840528910223753 -4.772797026900571 -9.873631817937577 -11.043689326537658 0.11213345675992074 -0.0996097312875338 0.11394431066362037 36.6574511056346 -34.480546873746476 29.925278565306115 3.3165345283962684 66.04916553826307 -4.370398566383386 5.538183329537146 -10.4077124836712 16.15715911376554
0.7701318711042404 58.72950553894043 0.16076555475592613 -9.162794394220485 -24.211939730259047 11.322479719211007 4.412058024565409 11.246421293934684 1.6763825267025947 1.7996173887413134 -6.677502852438055 0.139574462121961 -1.8095491241247466 11.443926459069358 3.9500076800450943 5.363794512761557 -20.33118163066142 8.460243697513913 -0.22258193786811106 0.42253225736479644 0.025216998384727574 -0.020364209010393017 -0.3052348040663758 -0.0413738442169258 0.1994143364098245 -0.28995849901826054 -0.36750024928324015 84.12168215757673 49.206352762023926 -28.179016053040005 -23.524937105424364 -33.347387754590095 75.32947333715363 -10.014956115827957 -43.69803059265125 -15.37210741584803 0.0700720846339244 0.10586510400999444 -0.19213991813949646 0.17412382678013336 0.20074894470147442 -0.27813341385255863 0.25898038948107927 -0.48836418190631814 0.16157391446919026 6.812493430533717 5.159234615987907 0.3397424672180141 0.3931449415739935 -0.3487139740536787 0.23554091447731446 2.335582759799037 0.6012903674967834 -0.2811312265679595 0.1620532816911341 0.22651730076880203 0.4100792216822765 9.250704905254073 0.2658099116404309 -0.4088546167888608 0.2717027107077123 -0.11286108534993866 0.2474337145653347 1.6817354740211807 -1.13002822447387 -0.08946971515505484 -0.019442346915852858 0.3417087612861844 -0.06347358828716318 -43.84831866005363 7.568150982471255 -58.68702074512222 13.568594257958871 -9.014138742029743 -30.5147512114349 3.3077590159732715 30.72709154744684 -10.523836798618818 -0.1860942135482567 -0.48368262083880326 0.15012777140029182 0.13858939409717178 0.09607736288808683 -0.2677133199434695 0.40496351671564274 0.22695392594758038 -0.1199680572638956 -7.052948959603547 5.348809931496196 -0.0954121931763775 0.06871607864026531 -0.20666290134692697 0.3181848960935729 -2.038541034446356 0.9239446619067777 0.13695109585150753 -0.46811619283352107 0.46853795701476936 0.20513149822981608 -9.247208702172673 0.6926188546014338 0.021739745076210116 -0.24189819308858315 0.0542641987693117 0.2973864364623552 -2.4108061944493264 -1.143123938268606 0.1994393359694038 -0.039153845973686534 0.324388895654913 -0.2759552771984121 -9.795686552903037 -15.722837629728184 -3.8341194335106645 -0.11119793428704056 49.858567525868445 1.642715883953367 -7.84856866771436 -15.335408809437551 -23.16020500374568 0.3566240268036411 -0.20198362145587323 0.13031499344367156 45.0244601596569 -43.53990488317629 35.03720046091335 -5.9961564780097865 60.516145404851635 5.766462338864135 1.4856914357603608 -0.3982999201283548 5.203526685208146
0.5941729061305523 58.442479372024536 -2.23652059212327 -5.78852299610963 -30.900714956148562 17.243750003160773 2.9801310631870384 10.518384600113855 0.6928007083880854 1.642194441698919 -6.338151306828318 0.550169816653823 -1.408223003307253 11.191766973969889 7.334428739262589 4.657615278058415 -22.966654518140444 11.34245887630694 -0.4272899643693864 0.2299898116315188 -0.1113462307673305 -0.03130457123516672 -0.19644926057767206 -0.3746235229377552 0.32863681975141135 -0.3949102253093244 0.26431167229339153 110.41907159428473 52.82490843712122 -54.32993720563895 -25.333697556143385 -40.52134034552959 83.19203877002464 -15.647133520515055 -66.76559774068406 -23.509384764684242 -0.25387701087146325 0.0607523448722949 0.016030694105857935 -0.09424444427171688 0.04141279763953602 -0.0008273066632177945 0.5023336796671396 -0.20800732803550878 -0.2395953788016575 7.829347661616297 6.149448121099675 0.8092245378029791 0.20537855897870014 -0.4966145168151646 0.2860315938127528 2.166645287754765 0.05853429430018615 -0.3210315908735873 -0.48781216388316356 -0.9521127889307334 0.5845548032046655 9.556913384803146 0.5139562603961212 -0.5506535861461304 -0.26191048727416183 0.1135293766715421 0.03200965486483831 2.00203260611558 -0.5372219124215944 -0.5649653404173929 -0.31297250126150117 0.12675475733880243 0.015831311279031743 -42.58538253157242 -4.987075429089504 -72.98717607451364 12.105819600967784 -3.6267621473850706 -18.812666653627506 9.484348601287286 48.838031395936405 -14.211555823025314 -0.15862682124446198 -0.01143192240160306 0.316484072268534 0.0939457302172346 0.651709116402525 -0.3846869262256963 0.15089168537027545 0.08801581867676771 0.5454504227416087 -8.088319406639208 6.197458801436164 -0.5815242269255897 -0.3449696963671895 0.13936600795014337 0.5585961356555031 -2.6865153180333534 1.156054019975969 0.7115781257160669 -1.0037588374529618 -0.5755245460699682 0.12649478326351882 -9.972896664692664 0.6332801988047728 -0.2574141417270307 0.0708883922913401 0.02379152323071137 0.8634016516603731 -2.712849325821749 -1.7946569638565917 0.37013205990866355 0.22741749835706854 -0.6303579984179181 -0.7293349100108076 -6.132195063256223 -15.332456460168814 0.4258181119641015 -0.7833446842335363 54.02338465531044 2.7423898939820543 -10.064593661847377 -19.68801686746717 -24.58929231397662 0.7891094706147328 -0.02556938678711131 0.18827619218381134 33.509461313405325 -47.30269024788216 23.25106018008519 -10.621499966013538 54.186530553825364 11.882746476448814 -0.9471457473002531 4.834161580838082 1.3956270672606916
